<svg width="256" height="175" viewBox="0 0 256 175" fill="none" xmlns="http://www.w3.org/2000/svg">
<path fill-rule="evenodd" clip-rule="evenodd" d="M163 0C139.804 0 121 18.804 121 42H93C69.804 42 51 60.804 51 84C51 86.385 51.1988 88.7235 51.5807 91H42C18.804 91 0 109.804 0 133C0 156.196 18.804 175 42 175H214C237.196 175 256 156.196 256 133C256 116.083 245.998 101.502 231.586 94.8478C232.508 91.3873 233 87.7511 233 84C233 68.3114 224.398 54.632 211.653 47.4206C211.882 45.646 212 43.8368 212 42C212 18.804 193.196 0 170 0H163Z" fill="#C4C4C4"/>
</svg>