<svg width="180" height="180" viewBox="0 0 180 180" fill="none" xmlns="http://www.w3.org/2000/svg">
<rect width="180" height="180" rx="90" fill="white"/>
<path d="M31 129.92C30.9147 129.92 30.4027 129.877 29.464 129.792C28.6107 129.792 28.184 129.749 28.184 129.664C28.0133 129.323 27.8427 129.152 27.672 129.152C27.5867 129.152 27.3733 129.109 27.032 129.024C26.9467 128.939 26.52 128.64 25.752 128.128C24.984 127.616 24.4293 127.189 24.088 126.848C23.4907 127.189 22.8507 127.488 22.168 127.744C21.4853 128.085 20.8027 128.256 20.12 128.256C18.584 128.256 17.048 127.659 15.512 126.464C14.0613 125.355 13.336 124.117 13.336 122.752C13.336 121.813 13.5493 120.789 13.976 119.68C14.3173 118.656 14.4453 118.059 14.36 117.888C14.616 117.461 14.872 116.907 15.128 116.224C15.4693 115.541 15.5973 114.987 15.512 114.56C15.6827 114.219 16.0667 113.323 16.664 111.872C17.2613 110.336 17.8587 108.885 18.456 107.52C19.1387 106.069 19.5653 105.344 19.736 105.344L19.864 104.448C19.9493 104.021 20.1627 103.851 20.504 103.936C20.8453 103.936 21.016 104.149 21.016 104.576C20.9307 105.771 20.76 106.923 20.504 108.032C20.248 109.141 20.12 110.379 20.12 111.744V112.128C20.12 113.237 20.248 114.304 20.504 115.328C20.8453 116.352 20.9307 117.419 20.76 118.528C20.76 118.699 20.8027 118.869 20.888 119.04C21.0587 119.296 21.1867 119.509 21.272 119.68H21.4C21.8267 121.045 22.3387 122.283 22.936 123.392C23.6187 122.965 24.2587 122.496 24.856 121.984C25.4533 121.472 26.008 120.96 26.52 120.448C27.2027 120.363 27.6293 120.149 27.8 119.808C28.056 119.467 28.2693 119.04 28.44 118.528C29.3787 117.675 30.232 116.736 31 115.712C31.8533 114.688 32.7067 113.749 33.56 112.896L33.688 112.768C34.0293 112.171 34.456 112 34.968 112.256C35.1387 111.573 35.4373 110.848 35.864 110.08C36.376 109.312 36.9307 108.587 37.528 107.904C38.1253 107.136 38.68 106.368 39.192 105.6L44.312 97.408C44.7387 96.7253 45.1227 96.0853 45.464 95.488C45.8053 94.8053 46.1893 94.1653 46.616 93.568C46.7867 93.312 47 93.0987 47.256 92.928C47.5973 92.7573 47.8107 92.6293 47.896 92.544V92.16C47.896 91.648 47.9813 91.264 48.152 91.008H48.28C48.6213 90.4107 48.9627 89.728 49.304 88.96C49.7307 88.192 50.1573 87.552 50.584 87.04C50.7547 86.8693 50.968 86.7413 51.224 86.656C51.48 86.4853 51.6507 86.272 51.736 86.016C51.736 85.9307 51.6933 85.7173 51.608 85.376C51.5227 85.0347 51.6507 84.7787 51.992 84.608L52.12 84.352V84.224C52.9733 84.1387 53.3147 83.9253 53.144 83.584C53.0587 83.2427 53.0587 82.816 53.144 82.304L53.528 81.792V81.664C54.1253 81.408 54.4667 81.024 54.552 80.512C54.7227 79.9147 54.8507 79.36 54.936 78.848C55.1067 78.7627 55.4053 78.208 55.832 77.184C56.344 76.16 56.8133 75.0933 57.24 73.984C57.752 72.7893 58.0933 72.064 58.264 71.808C58.6907 71.6373 58.904 71.3813 58.904 71.04C58.904 70.6133 58.9467 70.2293 59.032 69.888C59.2027 69.4613 59.2453 68.992 59.16 68.48C59.16 67.968 59.2027 67.456 59.288 66.944C59.4587 66.432 59.5867 65.8773 59.672 65.28C59.8427 64.6827 59.928 64.0853 59.928 63.488V63.36C59.8427 63.1893 59.8 62.9333 59.8 62.592C59.8 62.2507 59.8853 61.952 60.056 61.696C60.2267 61.44 60.3973 61.1413 60.568 60.8V60.672C60.7387 60.5013 60.952 60.16 61.208 59.648C61.5493 59.136 61.8907 58.9227 62.232 59.008C62.5733 58.8373 62.8293 58.752 63 58.752C63.4267 58.752 63.8533 58.9653 64.28 59.392H64.408L64.92 59.52C65.176 59.1787 65.3467 58.5387 65.432 57.6C65.6027 56.576 65.688 55.808 65.688 55.296V55.168C65.944 54.656 66.1147 54.2293 66.2 53.888C66.3707 53.4613 66.3707 52.9493 66.2 52.352C66.3707 52.1813 66.5413 52.0107 66.712 51.84C66.8827 51.584 67.096 51.3707 67.352 51.2C67.608 51.2853 67.736 51.6267 67.736 52.224C67.736 52.5653 67.6933 52.9493 67.608 53.376C67.608 53.7173 67.608 53.9733 67.608 54.144C67.5227 54.3147 67.48 54.6133 67.48 55.04C67.0533 55.2107 66.84 55.4667 66.84 55.808C66.84 56.064 66.8827 56.3627 66.968 56.704C67.1387 56.96 67.224 57.216 67.224 57.472C67.1387 58.6667 67.0533 59.9467 66.968 61.312C66.968 62.6773 66.968 64.0853 66.968 65.536C66.968 69.376 67.096 73.472 67.352 77.824C67.6933 82.176 68.1627 86.4 68.76 90.496C69.3573 94.592 70.0827 98.2613 70.936 101.504H71.064V101.888C71.064 102.229 71.1493 102.571 71.32 102.912C71.4907 103.253 71.6613 103.595 71.832 103.936V104.064L72.6 105.984C72.6 106.581 72.7707 107.136 73.112 107.648C73.5387 108.16 73.9227 108.629 74.264 109.056C74.3493 109.568 74.392 109.952 74.392 110.208C74.4773 110.379 74.8187 110.507 75.416 110.592L75.928 111.104H76.056C76.3973 112.213 76.952 112.597 77.72 112.256L77.848 112.384C77.9333 112.299 78.104 112.256 78.36 112.256C78.7867 112.256 79.128 112.469 79.384 112.896C79.64 113.323 79.9387 113.621 80.28 113.792L80.408 113.92C80.5787 113.92 80.7067 113.707 80.792 113.28C80.9627 112.853 81.1333 112.597 81.304 112.512C81.6453 112.597 82.2 112.384 82.968 111.872C83.8213 111.275 84.632 110.635 85.4 109.952C86.168 109.184 86.5947 108.672 86.68 108.416L86.808 108.288C87.2347 107.861 87.448 107.52 87.448 107.264C87.448 106.923 87.704 106.539 88.216 106.112L89.624 103.808V103.68C90.392 103.339 90.776 102.613 90.776 101.504C90.9467 101.248 91.1173 100.992 91.288 100.736C91.4587 100.395 91.5867 100.053 91.672 99.712V99.584C92.0133 99.2427 92.312 98.9867 92.568 98.816C92.9093 98.6453 92.9093 98.2613 92.568 97.664L93.848 94.592V94.464L94.744 92.8C95.1707 91.776 95.512 90.7093 95.768 89.6C96.1093 88.4907 96.4507 87.424 96.792 86.4C96.8773 86.144 97.048 85.5467 97.304 84.608C97.56 83.584 97.816 82.56 98.072 81.536C98.4133 80.512 98.584 79.872 98.584 79.616C98.6693 79.1893 98.7973 78.8053 98.968 78.464C99.224 78.1227 99.3947 77.7813 99.48 77.44C99.6507 75.8187 99.9493 74.24 100.376 72.704C100.803 71.168 101.229 69.632 101.656 68.096C101.571 67.9253 101.485 67.7547 101.4 67.584C101.4 67.4133 101.4 67.2427 101.4 67.072L101.528 66.944L101.784 65.28C101.869 64.768 102.04 64.256 102.296 63.744C102.637 63.1467 102.595 62.592 102.168 62.08C102.083 61.3973 101.955 60.3307 101.784 58.88C101.613 57.4293 101.315 56.5333 100.888 56.192C100.803 55.8507 100.632 55.3813 100.376 54.784C100.12 54.1867 99.992 53.76 99.992 53.504C99.992 53.248 100.12 53.0347 100.376 52.864C100.717 52.6933 101.016 52.608 101.272 52.608C101.955 52.608 102.467 52.8213 102.808 53.248C103.235 53.6747 103.661 54.1013 104.088 54.528L104.216 54.656C104.301 55.2533 104.685 55.808 105.368 56.32V56.448C105.709 56.8747 105.923 57.344 106.008 57.856H106.136C106.221 58.0267 106.179 58.1973 106.008 58.368C105.923 58.5387 105.88 58.7093 105.88 58.88C106.051 59.136 106.264 59.3067 106.52 59.392C106.776 59.392 106.989 59.4347 107.16 59.52C107.587 59.9467 107.8 60.544 107.8 61.312C107.8 62.08 108.099 62.592 108.696 62.848C109.123 63.2747 109.507 63.7013 109.848 64.128C110.275 64.4693 110.787 64.768 111.384 65.024C111.555 64.9387 111.768 64.9387 112.024 65.024C112.28 65.1093 112.536 65.1093 112.792 65.024V64.896H112.92C113.091 64.7253 113.219 64.64 113.304 64.64C113.731 64.64 113.944 64.9387 113.944 65.536C113.944 65.9627 113.731 66.304 113.304 66.56L112.92 66.816C112.835 66.7307 112.707 66.688 112.536 66.688C112.28 66.688 111.981 66.7733 111.64 66.944C111.384 67.1147 111.085 67.2 110.744 67.2C110.403 66.944 110.104 66.7307 109.848 66.56C109.677 66.3893 109.379 66.304 108.952 66.304L108.696 66.176L105.88 63.872C105.795 63.7867 105.709 63.744 105.624 63.744C105.453 63.744 105.368 63.9147 105.368 64.256C105.368 64.512 105.368 64.7253 105.368 64.896C105.453 65.2373 105.496 65.536 105.496 65.792C105.496 66.048 105.496 66.3467 105.496 66.688C105.496 67.456 105.453 68.224 105.368 68.992C105.283 69.76 105.197 70.4853 105.112 71.168C104.771 71.5093 104.515 71.8507 104.344 72.192C104.259 72.448 104.387 72.7893 104.728 73.216C104.728 73.472 104.557 74.2827 104.216 75.648C103.96 77.0133 103.747 77.9093 103.576 78.336C102.979 80.384 102.467 82.2613 102.04 83.968C101.613 85.6747 100.931 87.5093 99.992 89.472C99.9067 89.728 99.864 90.0267 99.864 90.368C99.864 90.7093 99.7787 91.008 99.608 91.264V91.392C99.096 92.7573 98.584 94.1227 98.072 95.488C97.56 96.8533 96.9627 98.1333 96.28 99.328L94.616 102.272C94.2747 102.869 93.9333 103.381 93.592 103.808C93.2507 104.235 92.9093 104.747 92.568 105.344C92.1413 106.197 91.7147 107.051 91.288 107.904C90.8613 108.672 90.3067 109.397 89.624 110.08V110.208C89.4533 110.123 89.2827 110.08 89.112 110.08C88.6853 110.08 88.3867 110.293 88.216 110.72C88.0453 111.061 87.8747 111.317 87.704 111.488C87.6187 111.573 87.4907 111.616 87.32 111.616C86.7227 111.616 86.424 111.744 86.424 112C86.424 112.341 86.3387 112.64 86.168 112.896H86.04C85.1867 113.493 84.248 113.963 83.224 114.304C82.2 114.645 81.176 114.816 80.152 114.816C78.9573 114.816 77.976 114.645 77.208 114.304H76.952C76.6107 113.365 76.0133 113.109 75.16 113.536L75.032 113.408C74.6053 112.981 74.136 112.597 73.624 112.256C73.112 112 72.6427 111.659 72.216 111.232C70.8507 109.781 69.5707 107.861 68.376 105.472C67.1813 102.997 66.3707 100.821 65.944 98.944V98.688C65.944 98.6027 65.944 98.56 65.944 98.56C66.0293 98.4747 66.072 98.3893 66.072 98.304C66.072 98.048 65.9867 97.792 65.816 97.536C65.7307 97.28 65.6027 97.0667 65.432 96.896C65.432 96.7253 65.304 96.2133 65.048 95.36C64.8773 94.4213 64.7067 93.4827 64.536 92.544C64.3653 91.52 64.28 90.7947 64.28 90.368C64.28 89.7707 64.3227 89.3013 64.408 88.96C64.5787 88.6187 64.4507 88.2773 64.024 87.936V87.552C64.024 86.8693 63.9387 86.2293 63.768 85.632C63.6827 84.9493 63.64 84.3093 63.64 83.712V83.584C63.64 82.7307 63.5973 81.9627 63.512 81.28C63.512 80.512 63.4693 79.744 63.384 78.976C63.2987 78.2933 63.256 77.568 63.256 76.8C63.3413 76.032 63.384 75.264 63.384 74.496V72.704C63.384 71.5947 63.2987 71.04 63.128 71.04C62.872 71.04 62.4027 71.68 61.72 72.96C61.5493 73.3013 61.1227 74.112 60.44 75.392C59.8427 76.5867 59.16 77.9093 58.392 79.36C57.7093 80.7253 57.0693 81.92 56.472 82.944C55.96 83.968 55.6613 84.5227 55.576 84.608C55.4907 85.2053 55.192 85.76 54.68 86.272V86.4L52.376 90.368V90.496C52.2053 90.6667 52.0347 90.88 51.864 91.136C51.7787 91.392 51.6507 91.648 51.48 91.904V92.032L49.944 94.464V94.592C49.5173 94.7627 49.176 94.9333 48.92 95.104C48.664 95.2747 48.664 95.6587 48.92 96.256V96.384L47.768 98.176V98.304C47.1707 98.6453 46.744 99.1147 46.488 99.712C46.3173 100.224 46.104 100.779 45.848 101.376H45.72C45.2933 102.144 44.824 102.955 44.312 103.808C43.8853 104.661 43.3733 105.429 42.776 106.112C42.3493 106.709 41.5813 107.733 40.472 109.184C39.3627 110.549 38.7227 111.573 38.552 112.256H38.424C38.3387 112.597 38.1253 112.896 37.784 113.152C37.528 113.493 37.3147 113.792 37.144 114.048C35.608 116.096 33.7733 118.272 31.64 120.576C29.5067 122.965 27.3307 124.843 25.112 126.208C25.88 126.976 26.776 127.616 27.8 128.128C28.2267 128.128 28.44 128.213 28.44 128.384C28.44 128.555 28.5253 128.725 28.696 128.896H28.952C29.208 128.896 29.5493 128.853 29.976 128.768C30.488 128.768 30.8293 128.768 31 128.768C31.4267 128.768 31.64 128.939 31.64 129.28C31.64 129.707 31.4267 129.92 31 129.92ZM18.584 125.312C19.0107 125.312 19.48 125.184 19.992 124.928C20.5893 124.672 21.272 124.373 22.04 124.032C21.9547 123.861 21.912 123.733 21.912 123.648C21.912 123.563 21.8267 123.477 21.656 123.392C21.5707 123.136 21.4427 122.88 21.272 122.624C21.1867 122.368 21.0587 122.112 20.888 121.856V121.728C20.7173 121.301 20.5467 120.832 20.376 120.32C20.2907 119.808 20.1627 119.339 19.992 118.912H19.864C19.5227 118.229 19.2667 116.949 19.096 115.072C19.0107 113.28 18.968 111.957 18.968 111.104C18.8827 111.531 18.6693 112.341 18.328 113.536C18.072 114.731 17.816 115.883 17.56 116.992C17.3893 118.187 17.304 118.955 17.304 119.296C16.792 119.637 16.536 119.936 16.536 120.192C16.536 120.363 16.5787 120.533 16.664 120.704C16.8347 120.875 16.9627 121.088 17.048 121.344C17.048 123.989 17.56 125.312 18.584 125.312Z" fill="black"/>
<path d="M126.4 105.672C125.888 105.672 125.376 105.629 124.864 105.544C124.352 105.544 123.797 105.501 123.2 105.416C123.115 105.416 122.901 105.288 122.56 105.032C122.219 104.861 121.963 104.776 121.792 104.776C121.28 104.776 120.725 104.733 120.128 104.648C119.616 104.648 119.061 104.605 118.464 104.52C118.379 104.435 118.293 104.307 118.208 104.136C118.208 104.051 118.123 104.008 117.952 104.008C117.867 104.008 117.824 104.008 117.824 104.008C117.909 104.093 117.909 104.136 117.824 104.136C117.739 104.136 117.525 104.051 117.184 103.88C116.928 103.709 116.715 103.581 116.544 103.496V103.24C116.203 103.155 115.989 103.027 115.904 102.856C115.819 102.771 115.733 102.728 115.648 102.728H115.392C115.221 102.728 115.136 102.685 115.136 102.6C114.795 102.429 114.368 102.173 113.856 101.832C113.344 101.576 113.003 101.32 112.832 101.064C112.491 100.979 112.277 100.851 112.192 100.68C112.107 100.595 111.979 100.467 111.808 100.296C111.723 100.125 111.637 100.04 111.552 100.04C111.552 100.125 111.509 100.125 111.424 100.04C111.083 99.528 110.656 99.101 110.144 98.76C110.144 98.675 110.101 98.589 110.016 98.504C110.016 98.504 110.016 98.461 110.016 98.376C109.845 98.376 109.717 98.333 109.632 98.248C109.547 98.077 109.504 97.949 109.504 97.864C109.504 97.693 109.419 97.608 109.248 97.608C109.163 97.181 109.035 96.883 108.864 96.712C108.693 96.541 108.523 96.285 108.352 95.944C108.267 95.773 108.224 95.603 108.224 95.432C108.224 95.176 108.139 95.048 107.968 95.048V94.92C108.053 94.749 107.925 94.28 107.584 93.512C107.328 92.659 107.2 91.933 107.2 91.336L106.944 91.208C106.688 90.781 106.517 90.269 106.432 89.672C106.432 89.075 106.475 88.477 106.56 87.88C106.731 87.197 106.731 86.899 106.56 86.984C106.389 87.069 106.389 86.643 106.56 85.704L107.456 83.912C107.456 83.741 107.413 83.571 107.328 83.4C107.243 83.229 107.2 83.101 107.2 83.016C107.2 82.931 107.243 82.845 107.328 82.76C107.413 82.675 107.456 82.589 107.456 82.504C107.541 82.333 107.584 82.077 107.584 81.736C107.584 81.395 107.627 81.181 107.712 81.096C107.797 80.925 107.925 80.797 108.096 80.712C108.267 80.541 108.395 80.413 108.48 80.328L109.12 78.792C109.291 78.621 109.419 78.493 109.504 78.408C109.675 78.237 109.803 78.067 109.888 77.896C110.059 77.64 110.187 77.427 110.272 77.256C110.357 77 110.485 76.744 110.656 76.488C110.741 76.317 110.869 76.147 111.04 75.976C111.296 75.805 111.467 75.677 111.552 75.592C111.979 75.336 112.32 75.208 112.576 75.208C112.917 75.208 113.131 75.549 113.216 76.232L113.088 76.872C112.747 77.299 112.405 77.683 112.064 78.024C111.723 78.28 111.339 78.579 110.912 78.92C110.912 79.005 110.869 79.133 110.784 79.304C110.784 79.389 110.784 79.517 110.784 79.688C110.613 79.688 110.528 79.773 110.528 79.944C110.528 80.029 110.485 80.157 110.4 80.328C110.4 80.413 110.272 80.584 110.016 80.84C109.931 81.011 109.845 81.224 109.76 81.48C109.76 81.651 109.717 81.821 109.632 81.992L109.248 82.248L109.12 85.32C109.205 85.405 109.291 85.405 109.376 85.32C109.461 85.491 109.504 85.747 109.504 86.088V86.216L109.376 86.344V87.368C109.291 87.453 109.248 87.539 109.248 87.624C109.248 87.709 109.291 87.837 109.376 88.008C109.461 88.093 109.504 88.221 109.504 88.392C109.419 88.477 109.376 88.605 109.376 88.776C109.376 88.947 109.461 89.117 109.632 89.288V89.672C109.803 89.928 110.016 90.184 110.272 90.44C110.528 90.611 110.741 90.781 110.912 90.952L111.936 91.336C113.472 92.445 114.624 93.213 115.392 93.64C116.16 94.067 117.44 94.536 119.232 95.048C119.915 95.219 120.597 95.432 121.28 95.688C121.963 95.859 122.645 95.944 123.328 95.944C123.413 95.944 123.456 95.987 123.456 96.072C123.456 96.072 123.499 96.072 123.584 96.072C123.925 96.072 124.224 96.115 124.48 96.2C124.821 96.285 125.163 96.328 125.504 96.328C125.589 96.328 125.675 96.328 125.76 96.328C125.845 96.243 125.931 96.2 126.016 96.2C126.187 96.2 126.315 96.243 126.4 96.328C126.485 96.328 126.571 96.328 126.656 96.328C127.339 96.328 128.021 96.328 128.704 96.328C129.387 96.328 130.027 96.285 130.624 96.2C131.307 96.2 131.989 96.115 132.672 95.944C133.355 95.773 133.995 95.688 134.592 95.688C135.787 95.603 136.939 95.389 138.048 95.048C139.243 94.621 140.395 94.237 141.504 93.896C141.589 93.811 142.315 93.512 143.68 93C145.131 92.403 146.624 91.763 148.16 91.08C148.501 90.056 148.672 88.819 148.672 87.368C148.672 84.979 148.16 82.845 147.136 80.968C147.136 80.968 146.923 80.84 146.496 80.584C146.069 80.243 145.813 80.072 145.728 80.072V79.816C145.728 79.389 145.515 79.176 145.088 79.176C144.661 79.091 144.277 78.835 143.936 78.408C143.765 78.152 143.552 77.939 143.296 77.768V77.64C143.04 77.469 142.997 77.341 143.168 77.256C143.424 77.085 143.595 76.957 143.68 76.872L143.424 76.616H143.296C143.125 76.445 142.912 76.317 142.656 76.232C142.4 76.147 142.187 75.976 142.016 75.72L141.376 75.208C141.291 75.037 141.12 74.952 140.864 74.952C140.608 74.952 140.395 74.909 140.224 74.824C139.883 74.568 139.499 74.269 139.072 73.928C138.645 73.587 138.219 73.331 137.792 73.16H137.664C137.323 72.989 136.981 72.776 136.64 72.52C136.384 72.264 136.043 72.051 135.616 71.88C135.531 71.709 135.403 71.709 135.232 71.88C135.147 71.965 135.061 71.965 134.976 71.88C134.635 71.709 134.336 71.453 134.08 71.112C133.824 70.685 133.483 70.472 133.056 70.472H132.928C132.672 70.301 132.459 70.045 132.288 69.704C132.203 69.277 132.075 68.979 131.904 68.808C131.136 68.381 130.368 68.083 129.6 67.912C128.832 67.741 128.064 67.528 127.296 67.272C126.784 67.016 126.144 66.888 125.376 66.888C124.693 66.803 124.139 66.717 123.712 66.632C123.2 66.461 122.944 66.205 122.944 65.864C122.944 65.437 123.371 65.011 124.224 64.584C124.565 64.413 124.949 64.328 125.376 64.328C125.803 64.243 126.187 64.2 126.528 64.2C127.467 64.2 128.917 63.944 130.88 63.432C132.928 62.92 135.232 62.237 137.792 61.384C140.352 60.445 142.827 59.464 145.216 58.44C145.728 58.269 146.112 58.099 146.368 57.928C146.709 57.757 146.965 57.8 147.136 58.056C146.965 58.056 146.88 58.184 146.88 58.44C147.307 58.44 147.563 58.312 147.648 58.056C147.819 57.715 147.989 57.373 148.16 57.032H148.288L150.72 55.752C151.061 55.667 151.36 55.709 151.616 55.88C151.957 55.965 152.256 55.923 152.512 55.752C152.427 55.581 152.299 55.453 152.128 55.368C152.043 55.197 152.128 55.027 152.384 54.856C152.555 54.685 152.683 54.6 152.768 54.6C153.28 54.259 153.749 54.045 154.176 53.96C154.688 53.789 155.072 53.448 155.328 52.936C156.693 51.997 157.845 51.016 158.784 49.992C159.723 48.883 160.192 47.859 160.192 46.92C160.192 45.725 159.339 44.701 157.632 43.848C156.011 42.909 153.067 42.141 148.8 41.544C148.629 41.544 148.459 41.544 148.288 41.544C148.117 41.459 147.947 41.416 147.776 41.416C146.667 41.416 145.6 41.16 144.576 40.648C144.661 40.989 144.491 41.16 144.064 41.16C142.869 41.075 141.675 41.032 140.48 41.032C139.285 40.947 138.133 40.904 137.024 40.904C135.147 40.904 133.397 40.947 131.776 41.032C130.24 41.117 129.131 41.203 128.448 41.288C127.765 41.373 127.04 41.459 126.272 41.544C125.589 41.544 124.907 41.629 124.224 41.8C123.712 41.629 123.2 41.715 122.688 42.056H122.56C121.963 42.141 121.365 42.227 120.768 42.312C120.171 42.397 119.531 42.525 118.848 42.696C118.507 42.781 118.123 42.867 117.696 42.952C117.269 42.952 116.843 43.037 116.416 43.208L113.856 43.72C113.515 43.976 113.131 44.189 112.704 44.36C112.363 44.445 111.979 44.445 111.552 44.36H111.424L108.992 45H108.864C108.608 45 108.309 44.829 107.968 44.488C107.712 44.061 107.541 43.677 107.456 43.336C107.371 43.848 107.243 44.403 107.072 45C106.901 45.597 106.603 45.896 106.176 45.896L102.592 47.048C102.251 47.133 101.867 47.176 101.44 47.176C101.013 47.176 100.587 47.176 100.16 47.176C99.733 47.176 99.392 47.219 99.136 47.304C98.88 47.389 98.709 47.603 98.624 47.944C98.624 48.2 98.496 48.413 98.24 48.584C97.899 48.925 97.472 49.181 96.96 49.352C96.448 49.437 95.979 49.565 95.552 49.736H95.424C95.253 49.736 94.997 49.651 94.656 49.48C94.4 49.309 94.187 49.267 94.016 49.352C93.931 49.437 93.845 49.651 93.76 49.992C93.675 50.333 93.547 50.547 93.376 50.632V50.76C92.864 50.931 92.309 51.144 91.712 51.4C91.115 51.656 90.56 51.912 90.048 52.168C89.536 52.424 88.939 52.723 88.256 53.064C87.659 53.32 87.147 53.491 86.72 53.576C86.549 53.576 86.464 53.405 86.464 53.064C86.549 52.723 86.507 52.637 86.336 52.808C85.824 53.064 85.312 53.533 84.8 54.216C84.288 54.899 83.819 55.368 83.392 55.624C82.965 55.965 82.496 56.136 81.984 56.136C81.557 56.136 81.131 56.307 80.704 56.648C80.448 56.904 80.192 57.331 79.936 57.928C79.765 58.44 79.552 58.824 79.296 59.08C78.613 59.763 77.931 60.573 77.248 61.512C77.163 61.683 77.035 61.853 76.864 62.024C76.693 62.195 76.608 62.408 76.608 62.664H76.48C75.968 63.688 75.712 64.669 75.712 65.608C75.712 67.485 76.395 68.851 77.76 69.704C79.211 70.557 80.832 71.197 82.624 71.624C82.965 71.709 83.264 71.837 83.52 72.008C83.861 72.179 84.203 72.221 84.544 72.136C84.885 71.965 85.184 71.88 85.44 71.88C85.867 71.88 86.208 72.051 86.464 72.392L88.384 72.776C89.408 73.032 89.92 73.288 89.92 73.544C89.92 73.715 89.664 73.885 89.152 74.056C88.725 74.141 88.299 74.184 87.872 74.184C86.336 74.184 84.459 73.885 82.24 73.288C80.021 72.605 78.016 71.624 76.224 70.344C74.432 68.979 73.408 67.315 73.152 65.352C73.152 65.267 73.024 65.053 72.768 64.712C72.597 64.371 72.469 64.072 72.384 63.816C72.128 63.048 72 62.28 72 61.512C72 60.061 72.299 58.696 72.896 57.416C73.579 56.136 74.475 54.941 75.584 53.832C76.011 53.405 76.395 53.107 76.736 52.936C77.163 52.765 77.632 52.509 78.144 52.168C78.656 51.827 78.912 51.528 78.912 51.272C78.912 51.016 79.168 50.717 79.68 50.376C80.363 49.949 81.301 49.437 82.496 48.84C83.776 48.243 84.757 47.773 85.44 47.432C85.952 47.432 86.421 47.219 86.848 46.792C88.555 46.024 90.347 45.341 92.224 44.744C94.101 44.061 95.979 43.421 97.856 42.824C98.368 42.568 98.88 42.44 99.392 42.44C99.904 42.44 100.288 42.568 100.544 42.824C100.544 42.653 100.501 42.525 100.416 42.44C100.416 42.269 100.501 42.141 100.672 42.056C102.805 41.373 104.939 40.819 107.072 40.392C109.205 39.88 111.253 39.453 113.216 39.112H113.344C113.6 39.112 113.984 39.027 114.496 38.856H114.624C114.795 38.856 114.923 38.856 115.008 38.856C115.179 38.771 115.349 38.728 115.52 38.728C116.032 38.984 116.544 38.899 117.056 38.472C119.36 38.045 121.493 37.747 123.456 37.576C125.419 37.32 127.083 37.192 128.448 37.192H128.832C129.003 37.192 129.173 37.192 129.344 37.192C129.6 37.107 129.813 37.064 129.984 37.064H131.264C131.52 36.979 131.776 36.979 132.032 37.064C132.373 37.064 132.629 37.064 132.8 37.064H132.928C133.952 37.064 135.019 37.107 136.128 37.192C137.323 37.192 138.517 37.192 139.712 37.192H139.84C140.181 37.277 140.437 37.405 140.608 37.576C140.864 37.747 141.163 37.661 141.504 37.32C143.808 37.405 146.112 37.661 148.416 38.088C149.696 38.259 151.232 38.6 153.024 39.112C154.901 39.539 156.693 40.179 158.4 41.032C160.107 41.8 161.515 42.781 162.624 43.976C163.819 45.171 164.416 46.621 164.416 48.328C164.416 49.011 164.288 49.736 164.032 50.504C163.776 51.272 163.307 51.997 162.624 52.68C161.941 53.277 161.259 53.917 160.576 54.6L159.04 56.008L158.144 56.264L157.12 56.776C155.243 57.629 153.195 58.611 150.976 59.72C148.757 60.744 146.411 61.555 143.936 62.152L142.784 62.408H142.656V62.536H142.528C142.357 62.621 142.144 62.664 141.888 62.664C141.632 62.579 141.376 62.621 141.12 62.792C136.939 63.901 132.971 64.669 129.216 65.096C128.363 65.181 127.936 65.352 127.936 65.608C127.936 65.779 128.235 65.992 128.832 66.248C129.515 66.419 130.027 66.589 130.368 66.76C131.989 67.272 133.696 67.827 135.488 68.424C137.28 68.936 139.115 69.576 140.992 70.344C141.504 70.429 142.016 70.6 142.528 70.856C143.125 71.112 143.552 71.496 143.808 72.008C143.893 71.837 144.021 71.795 144.192 71.88C144.363 71.965 144.491 72.008 144.576 72.008C145.685 72.52 146.752 73.075 147.776 73.672C148.8 74.269 149.739 74.909 150.592 75.592C150.763 76.019 150.848 76.232 150.848 76.232C151.445 76.232 151.872 76.403 152.128 76.744C152.384 77.085 152.683 77.469 153.024 77.896C153.963 78.92 154.688 80.029 155.2 81.224C155.712 82.333 155.968 83.528 155.968 84.808C155.968 85.149 155.925 85.491 155.84 85.832C155.84 86.173 155.797 86.557 155.712 86.984C157.675 85.875 159.125 84.424 160.064 82.632C160.235 82.376 160.448 82.248 160.704 82.248C161.216 82.248 161.387 82.547 161.216 83.144C160.789 84.253 159.979 85.491 158.784 86.856C157.675 88.136 156.395 89.117 154.944 89.8C154.944 89.885 154.901 89.971 154.816 90.056C154.389 91.08 153.963 91.848 153.536 92.36C153.451 92.701 153.28 92.957 153.024 93.128C152.853 93.299 152.725 93.512 152.64 93.768L152.512 93.896L152 94.152C151.915 94.237 151.829 94.365 151.744 94.536C151.744 94.707 151.659 94.877 151.488 95.048C151.659 95.219 151.616 95.304 151.36 95.304C149.227 97.864 146.496 99.997 143.168 101.704H143.04C142.443 102.045 142.229 102.131 142.4 101.96C142.571 101.875 142.571 101.747 142.4 101.576H142.272C141.589 101.917 141.163 102.173 140.992 102.344C140.736 102.344 140.437 102.429 140.096 102.6C139.84 102.771 139.712 102.856 139.712 102.856H139.072C138.987 102.856 138.773 102.941 138.432 103.112C138.176 103.368 137.963 103.539 137.792 103.624C137.365 103.624 137.067 103.752 136.896 104.008C136.725 104.008 136.512 104.008 136.256 104.008C136 104.008 135.744 104.051 135.488 104.136C135.403 104.221 134.976 104.264 134.208 104.264C133.525 104.349 133.099 104.435 132.928 104.52C132.843 104.605 132.544 104.733 132.032 104.904C131.52 105.075 131.179 105.16 131.008 105.16C130.923 105.16 130.837 105.117 130.752 105.032C130.752 105.032 130.709 105.032 130.624 105.032C130.539 105.032 130.453 105.075 130.368 105.16C130.283 105.331 130.155 105.416 129.984 105.416C129.813 105.416 129.643 105.373 129.472 105.288C129.301 105.203 129.131 105.16 128.96 105.16C128.875 105.16 128.704 105.203 128.448 105.288C128.277 105.459 128.107 105.544 127.936 105.544C127.765 105.544 127.595 105.501 127.424 105.416C127.339 105.416 127.168 105.459 126.912 105.544C126.741 105.629 126.571 105.672 126.4 105.672ZM126.912 103.496H127.168C127.339 103.581 127.552 103.496 127.808 103.24H128.32C128.661 103.069 128.875 102.984 128.96 102.984C129.131 102.984 129.259 103.069 129.344 103.24C129.429 103.496 129.643 103.496 129.984 103.24L130.496 103.112C130.667 102.941 130.837 102.856 131.008 102.856C131.179 102.856 131.349 102.813 131.52 102.728C131.691 102.643 131.776 102.515 131.776 102.344C131.861 102.259 131.989 102.259 132.16 102.344C132.331 102.344 132.416 102.344 132.416 102.344C132.501 102.429 132.587 102.472 132.672 102.472H132.8C133.056 102.472 133.397 102.344 133.824 102.088C134.251 101.832 134.464 101.704 134.464 101.704C134.635 101.704 134.805 101.576 134.976 101.32C135.147 101.149 135.275 101.064 135.36 101.064L136.384 100.808C136.896 100.552 137.28 100.424 137.536 100.424C137.621 100.253 137.877 100.083 138.304 99.912C138.731 99.741 138.944 99.613 138.944 99.528C139.115 99.357 139.371 99.229 139.712 99.144C140.053 99.059 140.267 98.973 140.352 98.888C140.693 98.888 141.504 98.376 142.784 97.352C144.149 96.328 145.301 95.005 146.24 93.384C146.325 93.213 146.069 93.256 145.472 93.512C144.875 93.768 144.235 94.067 143.552 94.408C142.955 94.664 142.613 94.792 142.528 94.792C142.443 94.792 142.229 94.963 141.888 95.304C141.547 95.56 141.333 95.688 141.248 95.688C141.077 95.859 140.907 95.944 140.736 95.944C140.736 95.944 140.565 95.859 140.224 95.688V95.944C140.053 95.944 139.925 95.987 139.84 96.072C139.755 96.072 139.627 96.072 139.456 96.072C139.285 96.072 139.029 96.157 138.688 96.328C138.347 96.499 138.133 96.584 138.048 96.584C137.963 96.584 137.835 96.627 137.664 96.712C137.579 96.712 137.451 96.669 137.28 96.584C136.939 96.925 136.299 97.181 135.36 97.352C134.421 97.523 133.739 97.608 133.312 97.608C133.227 97.608 133.184 97.608 133.184 97.608C133.269 97.523 133.269 97.48 133.184 97.48C133.099 97.48 133.013 97.523 132.928 97.608C132.843 97.608 132.715 97.608 132.544 97.608L132.288 97.864H131.264C131.008 97.864 130.709 97.907 130.368 97.992C130.112 98.077 129.899 98.077 129.728 97.992H129.472C129.387 97.992 129.259 97.992 129.088 97.992C129.003 98.077 128.875 98.12 128.704 98.12C128.619 98.12 128.533 98.077 128.448 97.992C128.448 97.907 128.363 97.821 128.192 97.736C128.107 97.736 128.021 97.779 127.936 97.864C127.851 98.035 127.723 98.12 127.552 98.12C127.467 98.12 127.381 98.077 127.296 97.992C127.296 97.992 127.253 97.992 127.168 97.992H126.656C126.656 98.077 126.571 98.12 126.4 98.12C126.315 98.12 126.272 98.077 126.272 97.992C126.272 97.992 126.229 97.992 126.144 97.992C125.973 97.992 125.76 98.035 125.504 98.12C125.333 98.205 125.163 98.248 124.992 98.248H124.736C124.736 98.077 124.651 97.949 124.48 97.864V97.992H123.328C122.816 97.907 122.304 97.736 121.792 97.48C121.28 97.224 120.811 97.053 120.384 96.968C120.299 96.968 120.213 97.011 120.128 97.096C120.128 97.181 120.085 97.224 120 97.224C119.915 97.224 119.829 97.181 119.744 97.096C119.744 97.011 119.701 96.968 119.616 96.968C119.531 96.968 119.445 97.011 119.36 97.096C119.36 97.096 119.275 97.011 119.104 96.84C118.933 96.84 118.592 96.755 118.08 96.584C118.08 96.328 117.952 96.2 117.696 96.2C117.696 96.029 117.184 95.816 116.16 95.56C115.136 95.304 114.539 95.133 114.368 95.048C114.283 94.963 114.112 94.835 113.856 94.664C113.685 94.493 113.557 94.493 113.472 94.664C113.216 94.579 112.875 94.365 112.448 94.024C112.021 93.597 111.68 93.384 111.424 93.384L110.912 92.616H110.784L110.4 93.256C110.4 93.341 110.443 93.555 110.528 93.896C110.699 94.237 110.741 94.493 110.656 94.664C110.827 94.749 110.912 94.92 110.912 95.176C110.912 95.432 110.997 95.56 111.168 95.56C111.168 96.072 111.339 96.584 111.68 97.096C111.68 97.181 111.893 97.352 112.32 97.608C112.832 97.864 113.045 98.035 112.96 98.12C113.301 98.461 113.472 98.717 113.472 98.888C113.813 99.229 113.984 99.485 113.984 99.656C114.069 99.741 114.112 99.784 114.112 99.784C114.197 99.784 114.24 99.784 114.24 99.784C114.325 99.955 114.539 100.253 114.88 100.68C115.307 101.107 115.605 101.32 115.776 101.32H116.032C116.117 101.405 116.288 101.576 116.544 101.832C116.885 102.088 117.099 102.216 117.184 102.216H117.312C117.995 102.216 118.677 102.301 119.36 102.472C120.128 102.728 120.853 102.899 121.536 102.984C121.536 102.984 121.621 103.027 121.792 103.112C122.048 103.197 122.304 103.283 122.56 103.368C123.243 103.453 124.053 103.453 124.992 103.368C125.931 103.368 126.571 103.411 126.912 103.496Z" fill="black"/>
</svg>
